<?xml version="1.0" encoding="utf-8"?>
<svg viewBox="660.937 120.42 230.183 230.183" width="230.183" height="230.183" xmlns="http://www.w3.org/2000/svg">
  <rect x="660.937" y="120.42" width="230.183" height="230.183" style="fill: rgb(255, 255, 255);" rx="115.091" ry="115.091"/>
  <g fill="none" transform="matrix(1.323398, 0, 0, 1.323398, 690.556396, 169.55188)" style="">
    <path d="m102.89 22.75a6.19 6.19 0 0 0 3.56-1.36l22-19.67c.84-.75.6-1.36-.52-1.36h-101.8a6.21 6.21 0 0 0 -3.56 1.36l-22.07 19.67c-.84.75-.6 1.36.52 1.36z" fill="#ff8718"/>
    <path d="m102.89 63a6.19 6.19 0 0 0 3.56-1.36l22-19.67c.84-.75.6-1.36-.52-1.36h-101.8a6.21 6.21 0 0 0 -3.56 1.39l-22.07 19.64c-.84.75-.6 1.36.52 1.36z" fill="#00a5ff"/>
    <path d="m102.89 103.25a6.19 6.19 0 0 0 3.56-1.36l22-19.67c.84-.75.6-1.36-.52-1.36h-101.8a6.21 6.21 0 0 0 -3.56 1.36l-22.07 19.67c-.84.75-.6 1.36.52 1.36z" fill="#ff0312"/>
  </g>
</svg>